<?xml version="1.0" encoding="UTF-8" standalone="no"?>
<!-- Created with Inkscape (http://www.inkscape.org/) -->

<svg
   xmlns:dc="http://purl.org/dc/elements/1.1/"
   xmlns:cc="http://creativecommons.org/ns#"
   xmlns:rdf="http://www.w3.org/1999/02/22-rdf-syntax-ns#"
   xmlns:svg="http://www.w3.org/2000/svg"
   xmlns="http://www.w3.org/2000/svg"
   xmlns:xlink="http://www.w3.org/1999/xlink"
   xmlns:sodipodi="http://sodipodi.sourceforge.net/DTD/sodipodi-0.dtd"
   xmlns:inkscape="http://www.inkscape.org/namespaces/inkscape"
   width="336.61417"
   height="354.33069"
   id="svg2"
   version="1.1"
   inkscape:version="0.48.2 r9819"
   sodipodi:docname="hutchinson_logo2.svg">
  <defs
     id="defs4">
    <marker
       inkscape:stockid="TriangleOutS"
       orient="auto"
       refY="0"
       refX="0"
       id="TriangleOutS"
       style="overflow:visible">
      <path
         id="path4459"
         d="m 5.77,0 -8.65,5 0,-10 8.65,5 z"
         style="fill-rule:evenodd;stroke:#000000;stroke-width:1pt;marker-start:none"
         transform="scale(0.2,0.2)"
         inkscape:connector-curvature="0" />
    </marker>
    <linearGradient
       id="linearGradient3948">
      <stop
         id="stop3950"
         offset="0"
         style="stop-color:#8ea1e8;stop-opacity:0.99145299;" />
      <stop
         id="stop3952"
         offset="1"
         style="stop-color:#000000;stop-opacity:0;" />
    </linearGradient>
    <linearGradient
       id="linearGradient3940">
      <stop
         style="stop-color:#b5c4ff;stop-opacity:0.99145299;"
         offset="0"
         id="stop3942" />
      <stop
         id="stop3994"
         offset="0.34381396"
         style="stop-color:#2b3e83;stop-opacity:1;" />
      <stop
         style="stop-color:#000000;stop-opacity:1;"
         offset="1"
         id="stop3944" />
    </linearGradient>
    <linearGradient
       id="linearGradient2990">
      <stop
         id="stop3938"
         offset="0"
         style="stop-color:#1a295e;stop-opacity:1" />
      <stop
         style="stop-color:#94a0c9;stop-opacity:1;"
         offset="1"
         id="stop2994" />
    </linearGradient>
    <radialGradient
       inkscape:collect="always"
       xlink:href="#linearGradient3940"
       id="radialGradient5009"
       gradientUnits="userSpaceOnUse"
       gradientTransform="matrix(-0.58981116,2.8188173,-1.2996049,-0.27219075,1134.3934,806.97512)"
       cx="81.489746"
       cy="817.755"
       fx="81.489746"
       fy="817.755"
       r="168.30708" />
    <radialGradient
       inkscape:collect="always"
       xlink:href="#linearGradient3948"
       id="radialGradient5011"
       gradientUnits="userSpaceOnUse"
       gradientTransform="matrix(-0.29377988,2.023187,-1.2480227,-0.18138607,1072.8718,795.18185)"
       cx="84.327766"
       cy="825.49847"
       fx="84.327766"
       fy="825.49847"
       r="168.30708" />
  </defs>
  <sodipodi:namedview
     id="base"
     pagecolor="#ffffff"
     bordercolor="#666666"
     borderopacity="1.0"
     inkscape:pageopacity="0.0"
     inkscape:pageshadow="2"
     inkscape:zoom="0.5"
     inkscape:cx="651.32423"
     inkscape:cy="298.19082"
     inkscape:document-units="px"
     inkscape:current-layer="g4989"
     showgrid="false"
     units="mm"
     inkscape:snap-midpoints="false"
     inkscape:snap-smooth-nodes="false"
     showguides="true"
     inkscape:window-width="1280"
     inkscape:window-height="752"
     inkscape:window-x="0"
     inkscape:window-y="0"
     inkscape:window-maximized="1"
     fit-margin-top="0"
     fit-margin-left="0"
     fit-margin-right="0"
     fit-margin-bottom="0">
    <inkscape:grid
       type="xygrid"
       id="grid4967"
       empspacing="5"
       visible="true"
       enabled="true"
       snapvisiblegridlinesonly="true" />
  </sodipodi:namedview>
  <metadata
     id="metadata7">
    <rdf:RDF>
      <cc:Work
         rdf:about="">
        <dc:format>image/svg+xml</dc:format>
        <dc:type
           rdf:resource="http://purl.org/dc/dcmitype/StillImage" />
        <dc:title></dc:title>
      </cc:Work>
    </rdf:RDF>
  </metadata>
  <g
     inkscape:label="Layer 1"
     inkscape:groupmode="layer"
     id="layer1"
     transform="translate(0,-697.85288)"
     style="display:none">
    <path
       style="fill:none;stroke:#000000;stroke-width:1px;stroke-linecap:butt;stroke-linejoin:miter;stroke-opacity:1"
       d="m 297.14285,463.79075 237.14286,-68.57142 208.57143,0 0,151.42857 -80,0 0,88.57143 120,0 0,85.71428 -51.42858,0 0,114.28572 -431.42856,0 0,-371.42858 z"
       id="path2985"
       inkscape:connector-curvature="0" />
  </g>
  <g
     inkscape:groupmode="layer"
     id="layer2"
     inkscape:label="logo"
     transform="translate(5.6568542,-784.15077)">
    <g
       id="g4989"
       transform="translate(-5.6568542,40.234862)">
      <path
         style="fill:url(#radialGradient5009);fill-opacity:1;stroke:none"
         d="m 0,744.09448 336.61417,0 L 0,1098.4252 z"
         id="path3990"
         inkscape:connector-curvature="0"
         sodipodi:nodetypes="cccc"
         inkscape:transform-center-x="-68.571429"
         inkscape:transform-center-y="67.142858" />
      <path
         inkscape:transform-center-y="67.142858"
         inkscape:transform-center-x="-68.571429"
         sodipodi:nodetypes="cccc"
         inkscape:connector-curvature="0"
         id="path2988"
         d="m 0,743.91591 336.61417,0 L 0,1098.2466 z"
         style="fill:url(#radialGradient5011);fill-opacity:1;stroke:none" />
      <path
         sodipodi:nodetypes="cccc"
         inkscape:connector-curvature="0"
         id="path3152"
         d="m 230.79921,858.9888 109.12765,-116.40281 -218.25529,0 z"
         style="fill:#ffffff;fill-opacity:1;stroke:none" />
      <g
         transform="translate(-342,-3)"
         id="g4973">
        <g
           transform="scale(1.2184529,0.8207129)"
           style="font-size:15.89668846px;font-style:normal;font-variant:normal;font-weight:bold;font-stretch:normal;line-height:125%;letter-spacing:0px;word-spacing:0px;fill:#172f7e;fill-opacity:1;stroke:none;font-family:Sinhala Sangam MN;-inkscape-font-specification:Sinhala Sangam MN Bold"
           id="text4004">
          <path
             d="m 431.82529,916.45415 0,5.22471 6.53884,0 0,-5.22471 1.27174,0 0,12.0179 -1.27174,0 0,-5.65923 -6.53884,0 0,5.65923 -1.28233,0 0,-12.0179 1.28233,0"
             style="fill:#172f7e;font-family:Sinhala Sangam MN;-inkscape-font-specification:Sinhala Sangam MN Bold"
             id="path5066"
             inkscape:connector-curvature="0" />
          <path
             d="m 442.84741,916.45415 0,8.09671 c 0,0.4875 0.0883,0.92555 0.26494,1.31413 0.1837,0.38859 0.42038,0.72065 0.71006,0.99619 0.28967,0.26848 0.61467,0.47337 0.97499,0.61467 0.36739,0.14131 0.73831,0.21196 1.11277,0.21196 0.38858,0 0.77717,-0.0636 1.16576,-0.19076 0.39564,-0.13424 0.7489,-0.33206 1.05978,-0.59348 0.31086,-0.26141 0.56167,-0.58641 0.75244,-0.97499 0.19782,-0.38859 0.29673,-0.83723 0.29674,-1.34592 l 0,-8.12851 1.29293,0 0,8.04372 c -1e-5,0.69946 -0.13778,1.31767 -0.41331,1.85462 -0.26849,0.53695 -0.62175,0.98913 -1.05978,1.35651 -0.43099,0.3674 -0.91849,0.64294 -1.4625,0.82663 -0.53696,0.19076 -1.07745,0.28614 -1.62146,0.28614 -0.51576,0 -1.03506,-0.0918 -1.55788,-0.27554 -0.51576,-0.18369 -0.98206,-0.45924 -1.3989,-0.82663 -0.40979,-0.36739 -0.74538,-0.82309 -1.00679,-1.36711 -0.26142,-0.54402 -0.39212,-1.17282 -0.39212,-1.88641 l 0,-8.01193 1.28233,0"
             style="fill:#172f7e;font-family:Sinhala Sangam MN;-inkscape-font-specification:Sinhala Sangam MN Bold"
             id="path5068"
             inkscape:connector-curvature="0" />
          <path
             d="m 461.15468,916.45415 0,1.16576 -3.97417,0 0,10.85214 -1.28233,0 0,-10.85214 -3.97417,0 0,-1.16576 9.23067,0"
             style="fill:#172f7e;font-family:Sinhala Sangam MN;-inkscape-font-specification:Sinhala Sangam MN Bold"
             id="path5070"
             inkscape:connector-curvature="0" />
          <path
             d="m 463.73914,922.30413 c -1e-5,0.91848 0.11657,1.71685 0.34972,2.3951 0.24022,0.6712 0.55462,1.22935 0.94321,1.67445 0.38858,0.44511 0.82662,0.77718 1.31412,0.9962 0.4875,0.21195 0.98559,0.31793 1.49429,0.31793 0.52282,0 0.99619,-0.0954 1.42011,-0.28614 0.4239,-0.19076 0.79129,-0.44157 1.10217,-0.75244 0.31792,-0.31087 0.5758,-0.66413 0.77364,-1.05978 0.20488,-0.40272 0.34971,-0.8125 0.43451,-1.22935 l 1.30352,0 c -0.12012,0.62174 -0.31794,1.20462 -0.59347,1.74864 -0.26849,0.53695 -0.61468,1.00679 -1.03859,1.4095 -0.42392,0.40272 -0.92201,0.72065 -1.49429,0.95381 -0.56522,0.23315 -1.20109,0.34972 -1.9076,0.34972 -0.81957,0 -1.56141,-0.14837 -2.22553,-0.4451 -0.66414,-0.29674 -1.22935,-0.72419 -1.69565,-1.28234 -0.46631,-0.56521 -0.82663,-1.25053 -1.08098,-2.05597 -0.25434,-0.80543 -0.38152,-1.72037 -0.38152,-2.74483 0,-0.79129 0.12011,-1.55786 0.36033,-2.29972 0.24021,-0.74183 0.58994,-1.3989 1.04918,-1.97119 0.45924,-0.57933 1.02092,-1.0421 1.68505,-1.38831 0.66412,-0.34618 1.4201,-0.51928 2.26793,-0.51929 0.71357,1e-5 1.34944,0.0954 1.9076,0.28614 0.56521,0.18371 1.05624,0.44512 1.47309,0.78424 0.41684,0.33914 0.76657,0.74185 1.04918,1.20815 0.2826,0.45924 0.50162,0.9644 0.65707,1.51548 l -1.35652,0 c -0.31794,-0.90434 -0.78071,-1.57553 -1.38831,-2.01358 -0.60055,-0.43803 -1.38125,-0.65705 -2.34211,-0.65706 -0.60055,10e-6 -1.15164,0.13778 -1.65326,0.41331 -0.49457,0.26849 -0.92201,0.63588 -1.28233,1.10217 -0.36033,0.46631 -0.64294,1.0068 -0.84783,1.62146 -0.19782,0.60762 -0.29674,1.25055 -0.29673,1.9288"
             style="fill:#172f7e;font-family:Sinhala Sangam MN;-inkscape-font-specification:Sinhala Sangam MN Bold"
             id="path5072"
             inkscape:connector-curvature="0" />
          <path
             d="m 475.97586,916.45415 0,5.22471 6.53884,0 0,-5.22471 1.27174,0 0,12.0179 -1.27174,0 0,-5.65923 -6.53884,0 0,5.65923 -1.28233,0 0,-12.0179 1.28233,0"
             style="fill:#172f7e;font-family:Sinhala Sangam MN;-inkscape-font-specification:Sinhala Sangam MN Bold"
             id="path5074"
             inkscape:connector-curvature="0" />
          <path
             d="m 486.99798,916.45415 0,12.0179 -1.28233,0 0,-12.0179 1.28233,0"
             style="fill:#172f7e;font-family:Sinhala Sangam MN;-inkscape-font-specification:Sinhala Sangam MN Bold"
             id="path5076"
             inkscape:connector-curvature="0" />
          <path
             d="m 490.60852,916.45415 6.11492,10.38584 0,-10.38584 1.28233,0 0,12.0179 -1.71684,0 -6.11492,-10.38584 0,10.38584 -1.28234,0 0,-12.0179 1.71685,0"
             style="fill:#172f7e;font-family:Sinhala Sangam MN;-inkscape-font-specification:Sinhala Sangam MN Bold"
             id="path5078"
             inkscape:connector-curvature="0" />
          <path
             d="m 501.01745,924.72043 c 0.0283,0.43098 0.12364,0.82663 0.28614,1.18695 0.16957,0.36033 0.39212,0.6712 0.66766,0.93261 0.27554,0.26141 0.60054,0.4663 0.975,0.61467 0.37445,0.14837 0.78777,0.22255 1.23994,0.22255 0.40271,0 0.78423,-0.0424 1.14456,-0.12717 0.36739,-0.0919 0.69239,-0.23315 0.975,-0.42391 0.2826,-0.19076 0.50515,-0.43804 0.66766,-0.74185 0.16956,-0.31087 0.25434,-0.68532 0.25435,-1.12337 -10e-6,-0.36032 -0.0919,-0.66412 -0.27554,-0.91141 -0.17664,-0.25434 -0.41333,-0.46983 -0.71006,-0.64646 -0.28968,-0.18369 -0.62174,-0.33912 -0.99619,-0.4663 -0.37446,-0.13424 -0.75598,-0.26141 -1.14456,-0.38152 -0.48044,-0.1413 -0.9644,-0.29674 -1.4519,-0.46631 -0.48043,-0.17662 -0.91494,-0.39917 -1.30353,-0.66766 -0.38858,-0.27553 -0.70298,-0.61466 -0.9432,-1.01739 -0.24022,-0.4027 -0.36033,-0.90433 -0.36032,-1.50488 -1e-5,-0.49456 0.0954,-0.9326 0.28614,-1.31413 0.19782,-0.38857 0.47336,-0.71004 0.82662,-0.9644 0.35326,-0.2614 0.77364,-0.45922 1.26114,-0.59347 0.49456,-0.13423 1.03505,-0.20135 1.62146,-0.20136 0.78423,10e-6 1.43423,0.11305 1.95,0.33913 0.51575,0.2261 0.92906,0.51577 1.23994,0.86902 0.31792,0.3462 0.54754,0.73125 0.68886,1.15516 0.14129,0.42392 0.22254,0.83017 0.24374,1.21874 l -1.31412,0 c -0.0353,-0.40271 -0.13072,-0.75596 -0.28614,-1.05978 -0.15544,-0.30379 -0.36033,-0.55814 -0.61467,-0.76304 -0.24729,-0.20488 -0.53697,-0.36031 -0.86902,-0.4663 -0.32501,-0.10597 -0.6712,-0.15896 -1.03859,-0.15897 -0.33913,10e-6 -0.67119,0.0353 -0.99619,0.10598 -0.325,0.0636 -0.61467,0.17311 -0.86902,0.32853 -0.25435,0.15545 -0.45924,0.3568 -0.61467,0.60408 -0.15544,0.24022 -0.23315,0.54049 -0.23315,0.90081 0,0.3674 0.0883,0.67826 0.26494,0.9326 0.17663,0.25436 0.41331,0.47691 0.71006,0.66766 0.29673,0.18371 0.63586,0.34267 1.01738,0.4769 0.38152,0.13425 0.77717,0.26496 1.18696,0.39212 0.48749,0.14838 0.96792,0.31088 1.4413,0.4875 0.48042,0.16957 0.9114,0.38859 1.29293,0.65706 0.38151,0.26142 0.68884,0.58995 0.922,0.9856 0.23315,0.38859 0.34972,0.87609 0.34973,1.46249 -10e-6,0.58642 -0.10952,1.10218 -0.32853,1.54728 -0.21196,0.44511 -0.51224,0.81603 -0.90081,1.11277 -0.38153,0.29674 -0.83724,0.51929 -1.36712,0.66766 -0.52989,0.15544 -1.10571,0.23315 -1.72744,0.23315 -0.56522,0 -1.1163,-0.0954 -1.65325,-0.28614 -0.5299,-0.19076 -1.00326,-0.46277 -1.42011,-0.81603 -0.41685,-0.35326 -0.75597,-0.78423 -1.01739,-1.29293 -0.25434,-0.50869 -0.38858,-1.07744 -0.40271,-1.70624 l 1.32472,0"
             style="fill:#172f7e;font-family:Sinhala Sangam MN;-inkscape-font-specification:Sinhala Sangam MN Bold"
             id="path5080"
             inkscape:connector-curvature="0" />
          <path
             d="m 520.86273,922.4737 c -1e-5,0.92554 -0.12012,1.7769 -0.36032,2.55406 -0.24023,0.77011 -0.58996,1.43424 -1.04919,1.99239 -0.45924,0.55815 -1.02446,0.99266 -1.69564,1.30353 -0.66414,0.31087 -1.42718,0.4663 -2.28913,0.4663 -0.86196,0 -1.62853,-0.15543 -2.29972,-0.4663 -0.66413,-0.31087 -1.22581,-0.74538 -1.68505,-1.30353 -0.45924,-0.55815 -0.80896,-1.22228 -1.04918,-1.99239 -0.23315,-0.77716 -0.34973,-1.62852 -0.34972,-2.55406 -1e-5,-0.91847 0.11657,-1.76276 0.34972,-2.53288 0.24022,-0.77716 0.58994,-1.44129 1.04918,-1.99238 0.45924,-0.55814 1.02092,-0.99265 1.68505,-1.30353 0.67119,-0.31086 1.43776,-0.46629 2.29972,-0.4663 0.86195,10e-6 1.62499,0.15544 2.28913,0.4663 0.67118,0.31088 1.2364,0.74539 1.69564,1.30353 0.45923,0.55109 0.80896,1.21522 1.04919,1.99238 0.2402,0.77012 0.36031,1.61441 0.36032,2.53288 m -1.28233,0 c -1e-5,-0.8125 -0.10599,-1.53668 -0.31794,-2.17255 -0.21196,-0.64293 -0.50517,-1.18695 -0.87961,-1.63206 -0.3674,-0.4451 -0.80191,-0.78423 -1.30353,-1.01739 -0.50164,-0.23314 -1.03859,-0.34972 -1.61087,-0.34973 -0.57935,10e-6 -1.11983,0.11659 -1.62146,0.34973 -0.50163,0.23316 -0.93614,0.57229 -1.30353,1.01739 -0.36739,0.44511 -0.65706,0.98913 -0.86902,1.63206 -0.20489,0.63587 -0.30733,1.36005 -0.30733,2.17255 0,0.8125 0.10244,1.54021 0.30733,2.18314 0.21196,0.64294 0.50163,1.18696 0.86902,1.63206 0.36739,0.44511 0.8019,0.78424 1.30353,1.01739 0.50163,0.23315 1.04211,0.34973 1.62146,0.34973 0.57228,0 1.10923,-0.11658 1.61087,-0.34973 0.50162,-0.23315 0.93613,-0.57228 1.30353,-1.01739 0.37444,-0.4451 0.66765,-0.98912 0.87961,-1.63206 0.21195,-0.64293 0.31793,-1.37064 0.31794,-2.18314"
             style="fill:#172f7e;font-family:Sinhala Sangam MN;-inkscape-font-specification:Sinhala Sangam MN Bold"
             id="path5082"
             inkscape:connector-curvature="0" />
          <path
             d="m 524.29583,916.45415 6.11493,10.38584 0,-10.38584 1.28233,0 0,12.0179 -1.71684,0 -6.11493,-10.38584 0,10.38584 -1.28233,0 0,-12.0179 1.71684,0"
             style="fill:#172f7e;font-family:Sinhala Sangam MN;-inkscape-font-specification:Sinhala Sangam MN Bold"
             id="path5084"
             inkscape:connector-curvature="0" />
        </g>
        <path
           style="fill:none;stroke:#091288;stroke-width:1px;stroke-linecap:butt;stroke-linejoin:miter;stroke-opacity:1"
           d="m 517.10714,766.52305 0.17857,-19.10714"
           id="path4008"
           inkscape:connector-curvature="0"
           sodipodi:nodetypes="cc" />
        <g
           id="g4297"
           transform="translate(-0.92857048,-46.214286)">
          <g
             transform="translate(1.4285714,47.142857)"
             id="g4293">
            <rect
               style="fill:#be0000;fill-opacity:1;stroke:none"
               id="rect4010"
               width="151.40329"
               height="23.215559"
               x="491.80823"
               y="832.86469" />
            <path
               sodipodi:nodetypes="cccc"
               inkscape:connector-curvature="0"
               id="path4012"
               d="m 568.51636,862.63411 23.89104,-25.48375 -47.78204,0 z"
               style="fill:#be0000;fill-opacity:1;stroke:none" />
          </g>
          <g
             style="font-size:13.21978188px;font-style:normal;font-weight:normal;line-height:125%;letter-spacing:0px;word-spacing:0px;fill:#ffffff;fill-opacity:1;stroke:none;font-family:Sans"
             id="text3998">
            <path
               d="m 499.37,885.95056 1.31681,0 2.02686,8.14617 2.02041,-8.14617 1.46528,0 2.02686,8.14617 2.02041,-8.14617 1.32327,0 -2.42062,9.63727 -1.63956,0 -2.03332,-8.36564 -2.05268,8.36564 -1.63956,0 -2.41416,-9.63727"
               id="path5033"
               inkscape:connector-curvature="0" />
            <path
               d="m 518.651,891.67612 0,0.58094 -5.46091,0 c 0.0516,0.81764 0.29693,1.44162 0.73587,1.87195 0.44324,0.42603 1.05861,0.63904 1.84612,0.63904 0.45615,0 0.89724,-0.0559 1.32327,-0.16783 0.43033,-0.11189 0.85635,-0.27972 1.27809,-0.50349 l 0,1.12317 c -0.42604,0.18074 -0.86283,0.31844 -1.31036,0.41311 -0.44755,0.0947 -0.90155,0.14201 -1.362,0.14201 -1.15329,0 -2.06775,-0.33565 -2.74337,-1.00697 -0.67131,-0.67132 -1.00697,-1.57932 -1.00697,-2.724 0,-1.18341 0.31844,-2.12153 0.95533,-2.81437 0.6412,-0.69713 1.50401,-1.0457 2.58845,-1.0457 0.97254,0 1.74068,0.31415 2.30442,0.94242 0.56803,0.62399 0.85205,1.47389 0.85206,2.54972 m -1.18772,-0.34857 c -0.009,-0.6498 -0.1915,-1.16835 -0.54867,-1.55565 -0.35288,-0.38729 -0.82194,-0.58094 -1.40718,-0.58095 -0.66272,10e-6 -1.19417,0.1872 -1.59438,0.56159 -0.39591,0.37439 -0.62398,0.90154 -0.68423,1.58146 l 4.23446,-0.006"
               id="path5035"
               inkscape:connector-curvature="0" />
            <path
               d="m 530.43778,889.74608 c 0.29692,-0.5336 0.65194,-0.92736 1.06507,-1.18126 0.41311,-0.25389 0.89938,-0.38084 1.45882,-0.38084 0.75307,0 1.33402,0.26466 1.74284,0.79396 0.40881,0.52501 0.61321,1.27379 0.61323,2.24633 l 0,4.36356 -1.19417,0 0,-4.32483 c -10e-6,-0.69283 -0.12266,-1.20708 -0.36794,-1.54274 -0.2453,-0.33565 -0.61968,-0.50348 -1.12316,-0.50349 -0.61538,10e-6 -1.10166,0.20442 -1.45883,0.61322 -0.35718,0.40883 -0.53577,0.9661 -0.53576,1.67184 l 0,4.086 -1.19417,0 0,-4.32483 c 0,-0.69713 -0.12265,-1.21138 -0.36793,-1.54274 -0.2453,-0.33565 -0.62399,-0.50348 -1.13608,-0.50349 -0.60677,10e-6 -1.08874,0.20657 -1.44591,0.61968 -0.35718,0.40882 -0.53577,0.96395 -0.53576,1.66538 l 0,4.086 -1.19417,0 0,-7.22957 1.19417,0 0,1.12317 c 0.2711,-0.44324 0.596,-0.77029 0.9747,-0.98116 0.37869,-0.21085 0.82838,-0.31629 1.34909,-0.31629 0.525,0 0.97039,0.13341 1.33618,0.40021 0.37007,0.26681 0.64333,0.65411 0.81978,1.16189"
               id="path5037"
               inkscape:connector-curvature="0" />
            <path
               d="m 540.97875,891.95368 c -0.95965,0 -1.62451,0.10974 -1.99459,0.3292 -0.37009,0.21948 -0.55513,0.59386 -0.55513,1.12317 0,0.42173 0.13771,0.75738 0.41312,1.00697 0.27971,0.24529 0.65841,0.36794 1.13608,0.36794 0.6584,0 1.18556,-0.23238 1.58146,-0.69714 0.40021,-0.46906 0.60031,-1.09089 0.60032,-1.86549 l 0,-0.26465 -1.18126,0 m 2.36897,-0.49058 0,4.12473 -1.18771,0 0,-1.09735 c -0.27112,0.43894 -0.60893,0.76384 -1.01343,0.97471 -0.40452,0.20655 -0.8994,0.30983 -1.48465,0.30983 -0.74017,0 -1.32972,-0.20656 -1.76866,-0.61967 -0.43463,-0.41742 -0.65195,-0.9747 -0.65195,-1.67184 0,-0.81332 0.27111,-1.42655 0.81333,-1.83967 0.54651,-0.41311 1.35984,-0.61967 2.43997,-0.61968 l 1.66539,0 0,-0.11618 c -1e-5,-0.54652 -0.18075,-0.96824 -0.54222,-1.26518 -0.35718,-0.30123 -0.86067,-0.45184 -1.51046,-0.45185 -0.41313,10e-6 -0.81548,0.0495 -1.20708,0.14847 -0.39161,0.099 -0.76815,0.24744 -1.12962,0.44539 l 0,-1.09735 c 0.43463,-0.16782 0.85635,-0.29261 1.26517,-0.37438 0.40881,-0.0861 0.80687,-0.1291 1.19417,-0.1291 1.0457,0 1.82675,0.27111 2.34316,0.81332 0.51639,0.54223 0.77458,1.36416 0.77459,2.4658"
               id="path5039"
               inkscape:connector-curvature="0" />
            <path
               d="m 545.75543,885.54389 1.19417,0 0,5.93212 3.54378,-3.11775 1.51691,0 -3.83425,3.38241 3.99563,3.84716 -1.54919,0 -3.67288,-3.53087 0,3.53087 -1.19417,0 0,-10.04394"
               id="path5041"
               inkscape:connector-curvature="0" />
            <path
               d="m 559.18822,891.67612 0,0.58094 -5.4609,0 c 0.0516,0.81764 0.29692,1.44162 0.73586,1.87195 0.44324,0.42603 1.05861,0.63904 1.84612,0.63904 0.45615,0 0.89724,-0.0559 1.32327,-0.16783 0.43033,-0.11189 0.85636,-0.27972 1.27809,-0.50349 l 0,1.12317 c -0.42604,0.18074 -0.86282,0.31844 -1.31036,0.41311 -0.44755,0.0947 -0.90155,0.14201 -1.362,0.14201 -1.15329,0 -2.06775,-0.33565 -2.74336,-1.00697 -0.67132,-0.67132 -1.00698,-1.57932 -1.00698,-2.724 0,-1.18341 0.31844,-2.12153 0.95534,-2.81437 0.64119,-0.69713 1.504,-1.0457 2.58844,-1.0457 0.97254,0 1.74068,0.31415 2.30442,0.94242 0.56804,0.62399 0.85205,1.47389 0.85206,2.54972 m -1.18771,-0.34857 c -0.009,-0.6498 -0.19151,-1.16835 -0.54868,-1.55565 -0.35287,-0.38729 -0.82193,-0.58094 -1.40718,-0.58095 -0.66271,10e-6 -1.19417,0.1872 -1.59438,0.56159 -0.39591,0.37439 -0.62398,0.90154 -0.68423,1.58146 l 4.23447,-0.006"
               id="path5043"
               inkscape:connector-curvature="0" />
            <path
               d="m 565.34627,888.35826 1.18771,0 0,7.22957 -1.18771,0 0,-7.22957 m 0,-2.81437 1.18771,0 0,1.50401 -1.18771,0 0,-1.50401"
               id="path5045"
               inkscape:connector-curvature="0" />
            <path
               d="m 570.18749,886.30558 0,2.05268 2.44643,0 0,0.92306 -2.44643,0 0,3.92463 c 0,0.58955 0.0796,0.96824 0.23883,1.13607 0.16353,0.16783 0.49273,0.25174 0.98762,0.25174 l 1.21998,0 0,0.99407 -1.21998,0 c -0.91661,0 -1.5492,-0.16998 -1.89777,-0.50994 -0.34857,-0.34427 -0.52285,-0.96825 -0.52285,-1.87194 l 0,-3.92463 -0.87142,0 0,-0.92306 0.87142,0 0,-2.05268 1.19417,0"
               id="path5047"
               inkscape:connector-curvature="0" />
            <path
               d="m 580.10233,894.54212 -0.74232,3.79553 -2.32379,0 1.94295,-9.97939 2.32379,0 -0.21302,1.05862 c 0.35287,-0.42172 0.72296,-0.73156 1.11026,-0.92952 0.38729,-0.20225 0.81117,-0.30338 1.27163,-0.30338 0.81332,0 1.45666,0.2582 1.93004,0.77459 0.47335,0.51641 0.71003,1.22 0.71004,2.11078 -10e-6,0.55513 -0.0839,1.0952 -0.25174,1.6202 -0.16354,0.525 -0.40022,1.00267 -0.71005,1.433 -0.39161,0.54222 -0.83485,0.95319 -1.32972,1.2329 -0.49059,0.27972 -1.01774,0.41957 -1.58147,0.41957 -0.49489,0 -0.91661,-0.099 -1.26518,-0.29692 -0.34426,-0.20226 -0.63474,-0.51425 -0.87142,-0.93598 m 2.42707,-4.67985 c -0.59386,1e-5 -1.08013,0.27542 -1.45882,0.82624 -0.37439,0.54652 -0.56159,1.25872 -0.56158,2.13659 -10e-6,0.39591 0.10542,0.7079 0.31629,0.93597 0.21516,0.22378 0.51209,0.33566 0.89079,0.33566 0.58094,0 1.06076,-0.26895 1.43946,-0.80687 0.37868,-0.54222 0.56803,-1.23505 0.56803,-2.0785 0,-0.43893 -0.10328,-0.77244 -0.30984,-1.00052 -0.20226,-0.23238 -0.49703,-0.34856 -0.88433,-0.34857"
               style="font-size:13.21978188px;font-style:italic;font-weight:bold;fill:#ffffff;fill-opacity:1;-inkscape-font-specification:Sans Bold Italic"
               id="path5049"
               inkscape:connector-curvature="0" />
            <path
               d="m 591.59864,889.83645 c -0.59817,10e-6 -1.0909,0.27111 -1.47819,0.81333 -0.3873,0.54222 -0.58095,1.2329 -0.58095,2.07204 0,0.45616 0.10328,0.80472 0.30984,1.04571 0.21086,0.23668 0.51639,0.35502 0.91661,0.35502 0.59815,0 1.09088,-0.27111 1.47819,-0.81333 0.38729,-0.54651 0.58094,-1.2415 0.58094,-2.08495 0,-0.45184 -0.10543,-0.79611 -0.31629,-1.0328 -0.20657,-0.23667 -0.50995,-0.35501 -0.91015,-0.35502 m 0.18719,-1.65247 c 1.07582,0 1.92143,0.27326 2.53681,0.81978 0.61536,0.54653 0.92305,1.291 0.92306,2.23342 -1e-5,0.54652 -0.0968,1.07798 -0.29048,1.59438 -0.19365,0.51209 -0.47552,0.98115 -0.8456,1.40718 -0.43894,0.50779 -0.95749,0.89079 -1.55565,1.14899 -0.59816,0.25819 -1.26517,0.38729 -2.00104,0.38729 -1.06292,0 -1.90206,-0.27326 -2.51744,-0.81978 -0.61107,-0.54652 -0.9166,-1.29099 -0.9166,-2.23342 0,-0.54221 0.099,-1.07152 0.29693,-1.58792 0.19795,-0.5207 0.48197,-0.99621 0.85205,-1.42655 0.43033,-0.49918 0.94243,-0.87787 1.53629,-1.13607 0.59815,-0.2582 1.25871,-0.3873 1.98167,-0.3873"
               style="font-size:13.21978188px;font-style:italic;font-weight:bold;fill:#ffffff;fill-opacity:1;-inkscape-font-specification:Sans Bold Italic"
               id="path5051"
               inkscape:connector-curvature="0" />
            <path
               d="m 603.13367,888.58419 -0.34211,1.79448 c -0.45186,-0.21516 -0.90155,-0.37869 -1.34909,-0.49058 -0.44755,-0.11188 -0.87143,-0.16782 -1.27163,-0.16783 -0.45615,10e-6 -0.80903,0.0602 -1.05861,0.18074 -0.2453,0.11619 -0.36794,0.28402 -0.36794,0.50349 0,0.1291 0.0688,0.23238 0.20656,0.30984 0.1377,0.0775 0.40881,0.15922 0.81333,0.24528 l 0.41957,0.0775 c 0.93381,0.19796 1.58792,0.45401 1.96231,0.76815 0.37438,0.30984 0.56158,0.74232 0.56158,1.29745 0,0.83914 -0.32921,1.4954 -0.98761,1.96876 -0.65841,0.46906 -1.57932,0.70359 -2.76272,0.70359 -0.49489,0 -1.00053,-0.0387 -1.51692,-0.11619 -0.5164,-0.0775 -1.04356,-0.19364 -1.58147,-0.34856 l 0.34857,-1.81385 c 0.41742,0.24529 0.86281,0.43033 1.33618,0.55513 0.47766,0.12479 0.96609,0.18719 1.46528,0.18719 0.48627,0 0.85205,-0.0581 1.09734,-0.17428 0.24529,-0.11619 0.36793,-0.28617 0.36793,-0.50995 0,-0.15491 -0.0688,-0.27541 -0.20655,-0.36147 -0.13772,-0.0861 -0.42173,-0.17429 -0.85206,-0.26466 l -0.41957,-0.0775 c -0.82624,-0.17213 -1.4158,-0.42602 -1.76867,-0.76169 -0.35287,-0.33565 -0.5293,-0.80041 -0.5293,-1.39427 0,-0.80471 0.30338,-1.42439 0.91015,-1.85903 0.61107,-0.43463 1.48249,-0.65195 2.61426,-0.65195 0.49488,0 0.98115,0.0344 1.45882,0.10328 0.48197,0.0646 0.96609,0.16353 1.45237,0.29693"
               style="font-size:13.21978188px;font-style:italic;font-weight:bold;fill:#ffffff;fill-opacity:1;-inkscape-font-specification:Sans Bold Italic"
               id="path5053"
               inkscape:connector-curvature="0" />
            <path
               d="m 611.00873,888.58419 -0.34211,1.79448 c -0.45185,-0.21516 -0.90155,-0.37869 -1.34909,-0.49058 -0.44755,-0.11188 -0.87142,-0.16782 -1.27163,-0.16783 -0.45615,10e-6 -0.80902,0.0602 -1.05861,0.18074 -0.2453,0.11619 -0.36794,0.28402 -0.36794,0.50349 0,0.1291 0.0688,0.23238 0.20656,0.30984 0.1377,0.0775 0.40881,0.15922 0.81333,0.24528 l 0.41957,0.0775 c 0.93382,0.19796 1.58792,0.45401 1.96231,0.76815 0.37438,0.30984 0.56158,0.74232 0.56159,1.29745 -10e-6,0.83914 -0.32921,1.4954 -0.98762,1.96876 -0.65841,0.46906 -1.57932,0.70359 -2.76272,0.70359 -0.49489,0 -1.00053,-0.0387 -1.51692,-0.11619 -0.5164,-0.0775 -1.04356,-0.19364 -1.58147,-0.34856 l 0.34857,-1.81385 c 0.41742,0.24529 0.86281,0.43033 1.33618,0.55513 0.47766,0.12479 0.96609,0.18719 1.46528,0.18719 0.48627,0 0.85205,-0.0581 1.09734,-0.17428 0.24529,-0.11619 0.36793,-0.28617 0.36794,-0.50995 -10e-6,-0.15491 -0.0689,-0.27541 -0.20656,-0.36147 -0.13771,-0.0861 -0.42173,-0.17429 -0.85206,-0.26466 l -0.41957,-0.0775 c -0.82624,-0.17213 -1.4158,-0.42602 -1.76867,-0.76169 -0.35287,-0.33565 -0.5293,-0.80041 -0.5293,-1.39427 0,-0.80471 0.30338,-1.42439 0.91015,-1.85903 0.61107,-0.43463 1.48249,-0.65195 2.61426,-0.65195 0.49488,0 0.98115,0.0344 1.45883,0.10328 0.48196,0.0646 0.96608,0.16353 1.45236,0.29693"
               style="font-size:13.21978188px;font-style:italic;font-weight:bold;fill:#ffffff;fill-opacity:1;-inkscape-font-specification:Sans Bold Italic"
               id="path5055"
               inkscape:connector-curvature="0" />
            <path
               d="m 613.2938,888.35826 2.32379,0 -1.41364,7.22957 -2.31734,0 1.40719,-7.22957 m 0.54221,-2.81437 2.32379,0 -0.36793,1.88486 -2.33024,0 0.37438,-1.88486"
               style="font-size:13.21978188px;font-style:italic;font-weight:bold;fill:#ffffff;fill-opacity:1;-inkscape-font-specification:Sans Bold Italic"
               id="path5057"
               inkscape:connector-curvature="0" />
            <path
               d="m 621.38833,889.86227 c -0.59386,1e-5 -1.08014,0.27542 -1.45883,0.82624 -0.37439,0.54652 -0.56158,1.25872 -0.56158,2.13659 0,0.39591 0.10543,0.7079 0.3163,0.93597 0.21516,0.22378 0.51209,0.33566 0.89078,0.33566 0.58094,0 1.06076,-0.26895 1.43946,-0.80687 0.37869,-0.54222 0.56803,-1.23505 0.56804,-2.0785 -10e-6,-0.43893 -0.10329,-0.77244 -0.30984,-1.00052 -0.20226,-0.23238 -0.49704,-0.34856 -0.88433,-0.34857 m -2.42707,4.67985 -0.21302,1.04571 -2.31733,0 1.9494,-10.04394 2.32379,0 -0.75523,3.87299 c 0.35287,-0.42172 0.72295,-0.73156 1.11025,-0.92952 0.3873,-0.20225 0.81117,-0.30338 1.27163,-0.30338 0.81332,0 1.45667,0.2582 1.93004,0.77459 0.47336,0.51641 0.71004,1.22 0.71005,2.11078 -10e-6,0.55513 -0.0839,1.0952 -0.25175,1.6202 -0.16353,0.525 -0.40021,1.00267 -0.71004,1.433 -0.39161,0.54222 -0.83485,0.95319 -1.32973,1.2329 -0.49058,0.27972 -1.01774,0.41957 -1.58147,0.41957 -0.49488,0 -0.91661,-0.099 -1.26517,-0.29692 -0.34427,-0.20226 -0.63474,-0.51425 -0.87142,-0.93598"
               style="font-size:13.21978188px;font-style:italic;font-weight:bold;fill:#ffffff;fill-opacity:1;-inkscape-font-specification:Sans Bold Italic"
               id="path5059"
               inkscape:connector-curvature="0" />
            <path
               d="m 627.85621,885.54389 2.32379,0 -1.95586,10.04394 -2.31733,0 1.9494,-10.04394"
               style="font-size:13.21978188px;font-style:italic;font-weight:bold;fill:#ffffff;fill-opacity:1;-inkscape-font-specification:Sans Bold Italic"
               id="path5061"
               inkscape:connector-curvature="0" />
            <path
               d="m 638.35845,892.24415 -0.0775,0.36794 -5.40926,0 c -10e-6,0.0258 -0.002,0.0646 -0.006,0.11619 -0.004,0.0473 -0.006,0.0839 -0.006,0.10973 -10e-6,0.46907 0.13985,0.81979 0.41957,1.05216 0.28401,0.23238 0.70789,0.34857 1.27163,0.34857 0.48627,0 0.99836,-0.0732 1.53628,-0.21947 0.54221,-0.14631 1.11025,-0.36363 1.70411,-0.65195 l -0.35502,1.79448 c -0.56374,0.20656 -1.12532,0.35933 -1.68475,0.4583 -0.55513,0.10328 -1.12101,0.15492 -1.69765,0.15492 -1.12748,0 -1.9989,-0.26035 -2.61427,-0.78105 -0.61107,-0.5207 -0.9166,-1.25656 -0.9166,-2.2076 0,-0.55082 0.0968,-1.08443 0.29047,-1.60083 0.19795,-0.5207 0.48412,-0.99621 0.85851,-1.42655 0.44324,-0.51639 0.97255,-0.90799 1.58792,-1.1748 0.61968,-0.2668 1.30606,-0.40021 2.05914,-0.40021 0.97685,0 1.75144,0.26035 2.32379,0.78105 0.57664,0.52071 0.86496,1.22215 0.86497,2.10432 -10e-6,0.17214 -0.0129,0.35503 -0.0387,0.54867 -0.0215,0.18935 -0.0581,0.39806 -0.10974,0.62613 m -2.18178,-1.05861 c 0.0129,-0.0559 0.0215,-0.11188 0.0258,-0.16783 0.009,-0.0602 0.0129,-0.11834 0.0129,-0.17428 0,-0.34426 -0.10328,-0.61752 -0.30984,-0.81979 -0.20656,-0.20225 -0.48628,-0.30337 -0.83914,-0.30338 -0.45186,10e-6 -0.837,0.1248 -1.15544,0.37439 -0.31415,0.24529 -0.55513,0.60892 -0.72296,1.09089 l 2.98865,0"
               style="font-size:13.21978188px;font-style:italic;font-weight:bold;fill:#ffffff;fill-opacity:1;-inkscape-font-specification:Sans Bold Italic"
               id="path5063"
               inkscape:connector-curvature="0" />
          </g>
        </g>
        <path
           style="fill:none;stroke:#000000;stroke-width:1px;stroke-linecap:butt;stroke-linejoin:miter;stroke-opacity:1"
           d="m 494.59822,755.96948 c 0,0 0,0 0,0 z"
           id="path4953"
           inkscape:connector-curvature="0" />
        <g
           id="g4969">
          <path
             sodipodi:nodetypes="ccccccscccccccccccccccc"
             inkscape:connector-curvature="0"
             id="path4959"
             d="m 495.375,747.4375 -8.3125,8.59375 c -0.63646,0.67176 -0.60673,1.86088 0.0625,2.5 l 8.40625,8.0625 c 0.66112,0.62605 1.82369,0.61134 2.46875,-0.0312 l 11.03125,-11 c 0.49611,-0.49094 0.65782,-1.28964 0.39173,-1.9349 -0.26608,-0.64525 -0.94377,-1.09781 -1.64173,-1.09635 -3.42061,0 -6.43721,0 -9.39593,0 -0.43617,0.0145 -0.79702,0.17571 -1.06166,0.44531 0,0 -1.81245,1.85428 -2.6116,2.67188 -0.23206,0.28699 9.9e-4,0.43389 0.13923,0.44531 2.87248,0 5.74497,0 8.61746,0 l -6.75,6.75 -5.875,-5.625 6.59375,-6.78125 9.76841,0 c 0.57751,0.0208 0.7944,-0.14436 1.16462,-0.43583 l 2.8815,-2.46027 c 0.22987,-0.2383 0.16002,-0.57863 -0.24449,-0.59351 -4.98211,-0.0156 -9.17702,0.0278 -14.35129,0.0127 -0.68456,-0.006 -0.74887,0.0171 -1.28125,0.47596 z"
             style="font-size:medium;font-style:normal;font-variant:normal;font-weight:normal;font-stretch:normal;text-indent:0;text-align:start;text-decoration:none;line-height:normal;letter-spacing:normal;word-spacing:normal;text-transform:none;direction:ltr;block-progression:tb;writing-mode:lr-tb;text-anchor:start;baseline-shift:baseline;color:#000000;fill:#be0000;fill-opacity:1;stroke:none;stroke-width:3.54330707;marker:none;visibility:visible;display:inline;overflow:visible;enable-background:accumulate;font-family:Sans;-inkscape-font-specification:Sans" />
          <path
             sodipodi:nodetypes="cccccccccccc"
             inkscape:connector-curvature="0"
             id="path4965"
             d="m 484.83444,755.61205 -0.48549,-0.44643 -0.97098,-0.89285 -1.04521,-0.9788 c -0.21294,-0.21892 -0.13638,-0.81285 0.36998,-0.80302 l 2.43861,-0.004 2.49653,0.008 c 0.52476,0.006 0.66367,0.55824 0.32713,0.88497 l -0.88169,0.89286 -0.8817,0.89287 -0.44085,0.44642 c -0.281,0.2715 -0.62426,0.25378 -0.92633,-2e-5 z"
             style="fill:#be0000;fill-opacity:1;stroke:none" />
        </g>
      </g>
    </g>
  </g>
</svg>
